<?xml version="1.0" encoding="UTF-8"?><svg id="b" xmlns="http://www.w3.org/2000/svg" viewBox="0 0 645.21 645.21"><defs><style>.d,.e{fill:#1cd336;}.e{opacity:.4;}</style></defs><g id="c"><rect width="645.21" height="645.21"/><path class="d" d="m133.03,322.6c0-51.05,19.09-89.7,66.8-89.7s66.8,38.65,66.8,89.7-18.61,89.7-66.8,89.7-66.8-38.65-66.8-89.7Zm34.12,32.45l52.73-86.36c-5.01-4.29-11.69-6.68-20.04-6.68-28.63,0-36.5,28.39-36.5,60.6,0,11.69.95,22.9,3.82,32.45Zm32.68,28.15c28.63,0,36.5-28.39,36.5-60.6,0-11.69-.95-22.9-3.82-32.45l-52.72,86.36c5.01,4.29,11.69,6.68,20.04,6.68Z"/><path class="d" d="m331.97,341.69l-43.18-64.42h35.79l26,40.56,26-40.56h35.79l-43.18,64.42,45.09,66.8h-35.79l-27.91-43.66-27.91,43.66h-35.79l45.09-66.8Z"/><rect class="e" x="448.19" y="233.1" width="63.99" height="178.6"/></g></svg>